<?xml version="1.0" encoding="utf-8"?>
<!-- Generator: Adobe Illustrator 25.2.3, SVG Export Plug-In . SVG Version: 6.00 Build 0)  -->
<svg version="1.1" id="圖層_1" xmlns="http://www.w3.org/2000/svg" xmlns:xlink="http://www.w3.org/1999/xlink" x="0px" y="0px"
	 viewBox="0 0 154.14 18.52" style="enable-background:new 0 0 154.14 18.52;" xml:space="preserve">
<style type="text/css">
	.st0{fill:#3D3A39;}
	.st1{fill:#0D9991;}
</style>
<g id="長德._麗冠._萬象_00000155848841081407776820000010891348743347882653_">
	<g>
		<g>
			<g>
				<g>
					<g>
						<path class="st0" d="M12.94,1.38h2.78v15.96h-2.78V1.38z M1.71,1.38h2.78v6.14h6.43l1.42,2.78H4.49v7.04H1.71V1.38z"/>
						<path class="st0" d="M29.26,8.16c-0.99-0.95-2.28-1.43-3.84-1.43h-2.76c-1.55,0-2.83,0.48-3.83,1.43
							c-1,0.95-1.51,2.22-1.51,3.76c0,1.55,0.51,2.85,1.52,3.87c1.01,1.02,2.29,1.54,3.83,1.54h2.76c1.54,0,2.83-0.52,3.83-1.54
							c1-1.02,1.51-2.32,1.51-3.87C30.76,10.38,30.26,9.11,29.26,8.16z M25.42,14.88h-2.76c-0.85,0-1.53-0.25-2.08-0.78
							c-0.54-0.52-0.8-1.18-0.8-2.03c0-0.86,0.26-1.54,0.81-2.08c0.54-0.54,1.22-0.8,2.07-0.8h2.76c0.86,0,1.54,0.26,2.09,0.8
							c0.54,0.54,0.81,1.22,0.81,2.08c0,0.85-0.26,1.51-0.8,2.03C26.97,14.62,26.29,14.88,25.42,14.88z"/>
						<path class="st0" d="M45.29,7.83c-0.08-0.32-0.24-0.6-0.48-0.84c-0.28-0.27-0.6-0.41-0.95-0.41c-0.53,0-0.99,0.38-1.4,1.17
							l-2.98,5.81l-2.97-5.82c-0.41-0.79-0.87-1.17-1.4-1.17c-0.36,0-0.68,0.13-0.94,0.39c-0.25,0.24-0.41,0.53-0.48,0.86
							l-2.32,9.52h2.72l1.27-6.18l2.83,5.43c0.37,0.71,0.93,0.86,1.34,0.86c0.37,0,0.89-0.15,1.25-0.85l2.83-5.45l1.28,6.18h2.71
							L45.29,7.83z"/>
						<path class="st1" d="M74.33,9.18l-1.17-2.46h-4.33V1.38h-2.76v5.35h-5.64c0.19,0.14,0.37,0.3,0.54,0.46
							c0.6,0.57,1.06,1.25,1.38,2h3.72v5.71h2.76V9.18H74.33z"/>
						<path class="st0" d="M61.4,13.26c0.09-0.42,0.14-0.87,0.14-1.34c0-1.54-0.51-2.81-1.5-3.76c-0.99-0.95-2.28-1.43-3.84-1.43
							h-2.76c-1.55,0-2.83,0.48-3.83,1.43c-1,0.95-1.51,2.22-1.51,3.76c0,1.55,0.51,2.85,1.52,3.87c1.01,1.02,2.29,1.54,3.83,1.54
							h2.76c1.54,0,2.83-0.52,3.83-1.54c0.28-0.29,0.52-0.6,0.73-0.93h-4.23c-0.11,0.01-0.22,0.01-0.33,0.01h-2.76
							c-0.85,0-1.53-0.25-2.08-0.78c-0.26-0.25-0.45-0.52-0.58-0.84h8.09c0,0,0,0,0,0H61.4z M53.44,9.19h2.76
							c0.86,0,1.54,0.26,2.09,0.8c0.26,0.26,0.46,0.55,0.59,0.88h-8.1c0.13-0.33,0.33-0.62,0.59-0.88
							C51.91,9.45,52.59,9.19,53.44,9.19z"/>
					</g>
				</g>
			</g>
			<path class="st0" d="M102.43,11.7l-0.29,0.92h2.14l1.13,1.36v2.93h-3.35l-0.57-1.43h1.2v-1.41h-0.96l-0.86,2.85h-2.86l0.84-2.85
				h-0.76v-1.45h1.2l0.29-0.92h-1.48v-1.52h2.58l-0.24-0.61h-1.58V6.52h11.9l1.13,1.26v1.79h-1.53l-0.27,0.61h1.45l1.13,1.52H102.43
				z M106.88,4.12v0.61h4.11l1.13,1.31h-13.5V4.73h5.13V4.12h-5.67V2.67h5.67V1.99h3.13v0.68h4.63l1.13,1.45H106.88z M108.76,7.78
				h-6.82v0.55h6.82V7.78z M103.53,9.57l0.27,0.61h3.13l0.25-0.61H103.53z M106.09,16.92v-4.67h5.29l1.13,1.42v3.25H106.09z
				 M109.77,13.7h-1.09v1.77h1.09V13.7z"/>
			<path class="st0" d="M88.48,13.43v3.53h-3.27v-3.53h-5.49V4.38h5.49V1.87h2.01l1.26,1.28v1.23h4.27L94,6.01v7.41H88.48z
				 M85.21,6.01h-2.36v5.78h2.36V6.01z M90.8,6.01h-2.32v5.78h2.32V6.01z"/>
		</g>
		<path class="st0" d="M120.77,16.99h-4.16l3.3-2.41h4.06L120.77,16.99z M131.76,16.99h-7.62l0.02-2.72h-6.42l0.04-6.99h3.3l0-0.67
			h-3.39l0.01-1.02h-0.59l0.02-2.99h5.75l-0.24-0.88h3.56l0.25,0.88h4.37l1.21,1.62l-0.01,1.38h-0.57l-0.01,1.02h-3.42l0,0.67h3.37
			l-0.04,6.99h-4.16l-0.01,1.19h1.07l-0.25-0.77h3.03l0.27,0.77h1.05L131.76,16.99z M128.18,12.17h-7.25l0,0.59h7.25L128.18,12.17z
			 M128.19,10.48h-7.25l0,0.59h7.25L128.19,10.48z M128.95,4.22h-8.73l0,0.86h0.88l0-0.52h2.94l-0.02,2.72h1.07l0.02-2.72h2.94
			l0,0.52h0.89L128.95,4.22z M128.2,8.8h-7.25l0,0.59h7.25L128.2,8.8z"/>
		<path class="st0" d="M149.51,3.58L149.2,4.7h2.44l-0.05,8.98h-6.99l0.01-0.9l-4.07,4.17h-3.55l-0.68-1.6h2.48l1.28-1.29h-0.4
			l0.03-5.15h-3.1l0.01-1.62h0.5l0.03-4.37h1.91l-0.03,4.37h0.69l0.03-5.54h1.65l1.21,1.93h1.34l-0.01,1.64h-1.34l-0.01,1.98h1.72
			l-0.01,1.62h-1.72l-0.02,2.58l0.57-0.55h1.48l0.04-6.25h1.65l0.33-1.12h-2.43l0.01-1.62h6.52l1.21,1.62H149.51z M138.68,14.22
			h-2.27l0.84-4.58h2.24L138.68,14.22z M146.85,16.95h-2.98l1.13-2.82h2.98L146.85,16.95z M148.78,11.22h-1.38l-0.01,0.95h1.38
			L148.78,11.22z M148.79,8.74h-1.38l-0.01,0.95h1.38L148.79,8.74z M149.26,16.95l-1.07-2.82h2.89l1.03,2.82H149.26z M148.81,6.3
			h-1.38l-0.01,0.95h1.38L148.81,6.3z"/>
	</g>
</g>
</svg>
